{
  "title": "12 Years a Slave (2013) DVDSCR XviD-MAX",
  "uid": 9420543,
  "size": 1471193081,
  "categoryP": "video",
  "categoryS": "movies",
  "magnet": "?xt=urn:btih:158cebe2e6c9fa4d8e12cb29db9196ef67f8e5d1&amp;dn=12+Years+a+Slave+%282013%29+DVDSCR+XviD-MAX&amp;tr=udp%3A%2F%2Ftracker.openbittorrent.com%3A80&amp;tr=udp%3A%2F%2Fopen.demonii.com%3A1337&amp;tr=udp%3A%2F%2Ftracker.coppersurfer.tk%3A6969&amp;tr=udp%3A%2F%2Fexodus.desync.com%3A6969",
  "seeders": 82,
  "leechers": 16,
  "uploader": "extremezone",
  "files": -1,
  "time": 1388537973,
  "description": " &lt;a href=&quot;http://img15.imageshack.us/img15/8980/eijv.jpg&quot; rel=&quot;nofollow&quot; target=&quot;_NEW&quot;&gt;http://img15.imageshack.us/img15/8980/eijv.jpg&lt;/a&gt;\n\nScreens:\n &lt;a href=&quot;\nhttp://img845.imageshack.us/img845/6168/cmgn.jpg&quot; rel=&quot;nofollow&quot; target=&quot;_NEW&quot;&gt;\nhttp://img845.imageshack.us/img845/6168/cmgn.jpg&lt;/a&gt; &lt;a href=&quot;\nhttp://img690.imageshack.us/img690/88/ihox.jpg&quot; rel=&quot;nofollow&quot; target=&quot;_NEW&quot;&gt;\nhttp://img690.imageshack.us/img690/88/ihox.jpg&lt;/a&gt; &lt;a href=&quot;\nhttp://img607.imageshack.us/img607/6644/57jr.jpg&quot; rel=&quot;nofollow&quot; target=&quot;_NEW&quot;&gt;\nhttp://img607.imageshack.us/img607/6644/57jr.jpg&lt;/a&gt; &lt;a href=&quot;\nhttp://img713.imageshack.us/img713/3488/n2wh.jpg&quot; rel=&quot;nofollow&quot; target=&quot;_NEW&quot;&gt;\nhttp://img713.imageshack.us/img713/3488/n2wh.jpg&lt;/a&gt;\n\nScreenCaps:\n &lt;a href=&quot;\nhttp://img855.imageshack.us/img855/7470/m4zh.jpg&quot; rel=&quot;nofollow&quot; target=&quot;_NEW&quot;&gt;\nhttp://img855.imageshack.us/img855/7470/m4zh.jpg&lt;/a&gt;\n\n12 Years a Slave (2013) DVDSCR XviD-MAX\nFormat                                   : AVI\nFormat/Info                              : Audio Video Interleave\nFormat profile                           : OpenDML\nFormat settings                          : rec\nFile size                                : 1.36 GiB\nDuration                                 : 2h 14mn\nOverall bit rate                         : 1 454 Kbps\nWriting application                      : VirtualDubMod 1.5.10.2 (build 2542/release)\nWriting library                          : VirtualDubMod build 2542/release\nOriginal source form                     : MAX TORRENTZ\nCopyright                                : SIGISMUNT\n\nVideo\nID                                       : 0\nFormat                                   : MPEG-4 Visual\nFormat profile                           : Advanced Simple@L5\nFormat settings, BVOP                    : 1\nFormat settings, QPel                    : No\nFormat settings, GMC                     : No warppoints\nFormat settings, Matrix                  : Default (H.263)\nMuxing mode                              : Packed bitstream\nCodec ID                                 : XVID\nCodec ID/Hint                            : XviD\nDuration                                 : 2h 14mn\nBit rate                                 : 1 001 Kbps\nWidth                                    : 720 pixels\nHeight                                   : 304 pixels\nDisplay aspect ratio                     : 2.35:1\nFrame rate                               : 23.976 fps\nColor space                              : YUV\nChroma subsampling                       : 4:2:0\nBit depth                                : 8 bits\nScan type                                : Progressive\nCompression mode                         : Lossy\nBits/(Pixel*Frame)                       : 0.191\nStream size                              : 960 MiB (69%)\nWriting library                          : XviD 1.2.1 (UTC 2008-12-04)\n\nAudio\nID                                       : 1\nFormat                                   : AC-3\nFormat/Info                              : Audio Coding 3\nMode extension                           : CM (complete main)\nFormat settings, Endianness              : Big\nCodec ID                                 : 2000\nDuration                                 : 2h 14mn\nBit rate mode                            : Constant\nBit rate                                 : 448 Kbps\nChannel(s)                               : 6 channels\nChannel positions                        : Front: L C R, Side: L R, LFE\nSampling rate                            : 48.0 KHz\nBit depth                                : 16 bits\nCompression mode                         : Lossy\nStream size                              : 430 MiB (31%)\nAlignment                                : Aligned on interleaves\nInterleave, duration                     : 64 ms (1.53 video frames)\nInterleave, preload duration             : 192 ms\n\nSource: DVDSCR (perfect a/v/sync quality,sample included)\nThis torrent is not seedbox supported,please seed it to the MAX\n\nNote: If you have something to offer as early releases,seedboxes,\ncontact us on &lt;a href=&quot; http://torentz.3xforum.ro&quot; rel=&quot;nofollow&quot; target=&quot;_NEW&quot;&gt; http://torentz.3xforum.ro&lt;/a&gt; or &lt;a href=&quot; http://torentz.tk&quot; rel=&quot;nofollow&quot; target=&quot;_NEW&quot;&gt; http://torentz.tk&lt;/a&gt;\n\n12 Years a Slave (2013) DVDSCR XviD-MAX Torrent Free Download\n\nHow To Get Your MAXSPEED (uTorrent)\n\nTorrent Client - Preferences - Bandwidth - Number of connections - Set aprox. 500 for each\nTorrent Client - Preferences - BiTorrent - Protocol Encryption - Forced\nBandwidth Allocation - High (Set download/upload limit - Unlimited)\nStop Other Active Torrents - Start downloading and wait for connections.\nEnjoy and Seed for at least 1:1 ratio. Don't forget to say thanks/leave reviews.\nIf screens/Caps image host is dead google search &quot;release name&quot;&quot;screens&quot; or &quot;sample&quot;.\nGreets to all actual/future p2p/scene QUALITY groups and affiliate websites.\nDon't trust IMDb robot or bad ratings,always watch some trailers first.\nIgnore stupid comments/fake/mislabeled/no-DVDrips/CAM/TS/RAR uploads.\nPlease spread this release/torrent to your friends/forums/etc.\nIf you need translation subs visit some subtitles sites.\nReport if you see online streaming or other spam links.\nRecommended movie player VLC PLAYER.",
  "parsed": {
    "xt": "urn:btih:158cebe2e6c9fa4d8e12cb29db9196ef67f8e5d1",
    "dn": "12 Years a Slave (2013) DVDSCR XviD-MAX",
    "tr": [
      "udp://exodus.desync.com:6969",
      "udp://open.demonii.com:1337",
      "udp://tracker.coppersurfer.tk:6969",
      "udp://tracker.openbittorrent.com:80"
    ],
    "infoHash": "158cebe2e6c9fa4d8e12cb29db9196ef67f8e5d1",
    "infoHashBuffer": {
      "type": "Buffer",
      "data": [
        21,
        140,
        235,
        226,
        230,
        201,
        250,
        77,
        142,
        18,
        203,
        41,
        219,
        145,
        150,
        239,
        103,
        248,
        229,
        209
      ]
    },
    "name": "12 Years a Slave (2013) DVDSCR XviD-MAX",
    "announce": [
      "udp://exodus.desync.com:6969",
      "udp://open.demonii.com:1337",
      "udp://tracker.coppersurfer.tk:6969",
      "udp://tracker.openbittorrent.com:80"
    ],
    "urlList": []
  },
  "previous": 98,
  "peers": 12,
  "last_updated": "2016-12-24T18:01:45.839Z"
}